<svg xmlns="http://www.w3.org/2000/svg" xmlns:xlink="http://www.w3.org/1999/xlink" viewBox="0 0 156.47 190.8"><defs><style>.cls-1{fill:#db8f36;}.cls-2{fill:#fff;}.cls-3{fill:#b36b29;}.cls-12,.cls-4{fill:#562f38;}.cls-10,.cls-5{fill:#eabd89;}.cls-5{fill-rule:evenodd;}.cls-6{fill:url(#radial-gradient);}.cls-12,.cls-7{opacity:0.31;}.cls-8{fill:#ba7838;}.cls-9{fill:#df9745;}.cls-11{fill:url(#linear-gradient);}</style><radialGradient id="radial-gradient" cx="79.52" cy="-13.33" r="51.2" gradientUnits="userSpaceOnUse"><stop offset="0.65" stop-color="#e7b174"/><stop offset="0.71" stop-color="#e4a863"/><stop offset="0.82" stop-color="#df9a4a"/><stop offset="0.92" stop-color="#dc923b"/><stop offset="1" stop-color="#db8f36"/></radialGradient><linearGradient id="linear-gradient" x1="0.95" y1="12.65" x2="155.5" y2="12.65" gradientUnits="userSpaceOnUse"><stop offset="0" stop-color="#e7b175"/><stop offset="0.52" stop-color="#f5e0c7"/><stop offset="1" stop-color="#e7b175"/></linearGradient></defs><g id="Layer_2" data-name="Layer 2"><g id="Layer_1-2" data-name="Layer 1"><path class="cls-1" d="M33.71,145.78v29.73a.76.76,0,0,0,.77-.74V145.21a.76.76,0,0,0-.77-.75v1.32Z"/><path class="cls-1" d="M147.42,145l2.8,4.11,2.81,4.11a.43.43,0,0,0,.61.07V151.9a.34.34,0,0,1-.53,0l-2.16-3.17-2.17-3.18c-.12-.17,0-.38.26-.38h4.61v-.71h-5.88C147.46,144.46,147.27,144.74,147.42,145Z"/><path class="cls-2" d="M150,146.09a.33.33,0,0,0,.05.16l3,4.4a.36.36,0,0,0,.3.15.36.36,0,0,0,.27-.12v-.47l-.2.3a.07.07,0,0,1-.07,0,.08.08,0,0,1-.08,0l-3-4.42s0-.06.08-.06h3.28v-.25h-3.28A.33.33,0,0,0,150,146.09Z"/><path class="cls-1" d="M151.72,146.68a.1.1,0,0,0-.11.1.06.06,0,0,0,0,0l.82,1.21.83,1.2a.12.12,0,0,0,.2,0l.17-.25v-.45l-.27.4-.71-1-.66-1h1.64v-.24h-1.92Z"/><path class="cls-3" d="M146.11,153.73h5.61a.34.34,0,0,0,.34-.51l-2.81-4.1-2.8-4.11a.43.43,0,0,0-.68,0L143,149.12l-2.8,4.1a.34.34,0,0,0,.34.51Zm0-.71h-4.33c-.24,0-.39-.21-.27-.39l2.17-3.17,2.16-3.17a.34.34,0,0,1,.53,0l2.17,3.17,2.17,3.17c.11.18,0,.39-.27.39Z"/><path class="cls-2" d="M149.46,152.1a.33.33,0,0,0-.05-.16l-3-4.41a.34.34,0,0,0-.29-.14.37.37,0,0,0-.3.14l-3,4.41a.31.31,0,0,0,.3.47h6A.33.33,0,0,0,149.46,152.1Zm-6.36.05s-.08,0-.08-.05l3-4.42a.09.09,0,0,1,.08,0,.09.09,0,0,1,.07,0l3,4.42s0,.05-.08.05Z"/><path class="cls-3" d="M147.87,151.41a.06.06,0,0,0,0,0l-.82-1.2-.82-1.21a.13.13,0,0,0-.2,0l-.83,1.21-.82,1.2a.11.11,0,0,0,0,0,.1.1,0,0,0,.11.1h3.29A.11.11,0,0,0,147.87,151.41Zm-1.76-.15h-1.37l.66-1,.71-1,.71,1,.66,1Z"/><path class="cls-1" d="M132.84,145l2.8,4.11,2.8,4.11a.44.44,0,0,0,.69,0l2.8-4.11,2.81-4.11c.15-.22,0-.5-.35-.5H133.18C132.88,144.46,132.69,144.74,132.84,145Zm5.95.21h4.33c.24,0,.38.21.26.38l-2.16,3.18-2.17,3.17a.34.34,0,0,1-.53,0l-2.16-3.17-2.17-3.18c-.12-.17,0-.38.26-.38Z"/><path class="cls-2" d="M135.43,146.09a.33.33,0,0,0,0,.16l3,4.4a.36.36,0,0,0,.3.15.33.33,0,0,0,.29-.15l3-4.4a.33.33,0,0,0,0-.16.33.33,0,0,0-.34-.31h-6A.33.33,0,0,0,135.43,146.09Zm6.37-.06s.08,0,.08.06l-3,4.42a.07.07,0,0,1-.07,0,.08.08,0,0,1-.08,0l-3-4.42s0-.06.08-.06Z"/><path class="cls-1" d="M137,146.78a.06.06,0,0,0,0,0l.82,1.21.83,1.2a.12.12,0,0,0,.2,0l.82-1.2.82-1.21,0,0c0-.06-.05-.1-.12-.1h-3.29A.1.1,0,0,0,137,146.78Zm1.76.14h1.37l-.66,1-.71,1-.71-1-.67-1Z"/><path class="cls-3" d="M137.48,153.22l-2.81-4.1-2.8-4.11a.44.44,0,0,0-.69,0l-2.8,4.11-2.8,4.1a.34.34,0,0,0,.34.51h11.21C137.44,153.73,137.63,153.45,137.48,153.22Zm-5.95-.2h-4.34c-.23,0-.38-.21-.26-.39l2.17-3.17,2.16-3.17a.34.34,0,0,1,.53,0l2.17,3.17,2.16,3.17c.12.18,0,.39-.26.39Z"/><path class="cls-2" d="M134.88,152.1a.33.33,0,0,0,0-.16l-3-4.41a.34.34,0,0,0-.29-.14.37.37,0,0,0-.3.14l-3,4.41a.31.31,0,0,0,.3.47h6A.33.33,0,0,0,134.88,152.1Zm-6.36.05c-.05,0-.08,0-.08-.05l3-4.42a.09.09,0,0,1,.08,0,.09.09,0,0,1,.07,0l3,4.42s0,.05-.08.05Z"/><path class="cls-3" d="M133.29,151.41l0,0-.82-1.2-.82-1.21a.13.13,0,0,0-.2,0l-.83,1.21-.82,1.2a.11.11,0,0,0,0,0,.1.1,0,0,0,.11.1h3.29A.11.11,0,0,0,133.29,151.41Zm-1.76-.15h-1.38l.67-1,.71-1,.71,1,.66,1Z"/><path class="cls-2" d="M131.53,154.39h-3.47a.24.24,0,0,0-.25.21.14.14,0,0,0,0,.1l1.73,2.54,1.74,2.54a.26.26,0,0,0,.42,0l1.73-2.54,1.74-2.54a.19.19,0,0,0,0-.1.23.23,0,0,0-.24-.21Zm0,.52h2.89l-1.4,2-1.49,2.2L130,157l-1.4-2Z"/><path class="cls-2" d="M142.39,154.6a.14.14,0,0,0,0,.1l1.73,2.54,1.74,2.54a.26.26,0,0,0,.42,0l1.73-2.54,1.74-2.54a.19.19,0,0,0,0-.1.23.23,0,0,0-.24-.21h-6.94A.24.24,0,0,0,142.39,154.6Zm3.72.31H149l-1.39,2-1.5,2.2-1.5-2.2-1.4-2Z"/><path class="cls-1" d="M128.54,145.17c.23,0,.38.21.26.38l-2.16,3.18-2.17,3.17a.3.3,0,0,1-.26.13v1.32a.42.42,0,0,0,.34-.17l2.8-4.11,2.81-4.11c.15-.22,0-.5-.35-.5h-5.6v.71Z"/><path class="cls-2" d="M124.5,150.65l3-4.4a.33.33,0,0,0,0-.16.33.33,0,0,0-.34-.31h-3V146h3s.08,0,.08.06l-3,4.42a.07.07,0,0,1-.07,0v.26A.33.33,0,0,0,124.5,150.65Z"/><path class="cls-1" d="M124.31,149.23l.82-1.2.82-1.21,0,0c0-.06,0-.1-.12-.1h-1.64v.24h1.37l-.66,1-.71,1v.35A.1.1,0,0,0,124.31,149.23Z"/><path class="cls-1" d="M138.79,165.18a5.1,5.1,0,1,0-5.27-5.09A5.18,5.18,0,0,0,138.79,165.18Zm0-9a3.9,3.9,0,1,1-4,3.9A4,4,0,0,1,138.79,156.19Z"/><ellipse class="cls-3" cx="138.79" cy="160.09" rx="1.48" ry="1.43"/><path class="cls-1" d="M153.37,164a3.9,3.9,0,1,1,0-7.79h.27V155h-.27a5.1,5.1,0,1,0,0,10.19h.27V164Z"/><path class="cls-3" d="M151.89,160.09a1.45,1.45,0,0,0,1.48,1.42,1.23,1.23,0,0,0,.27,0v-2.81l-.27,0A1.45,1.45,0,0,0,151.89,160.09Z"/><path class="cls-1" d="M128.24,160.09a4,4,0,0,1-4,3.89v1.2a5.1,5.1,0,1,0,0-10.19v1.2A4,4,0,0,1,128.24,160.09Z"/><path class="cls-3" d="M125.68,160.09a1.45,1.45,0,0,0-1.47-1.43v2.85A1.45,1.45,0,0,0,125.68,160.09Z"/><path class="cls-1" d="M153.37,174.81H149c-.23,0-.38-.22-.26-.39l2.17-3.17,2.16-3.18a.34.34,0,0,1,.53,0v-1.35a.43.43,0,0,0-.61.07l-2.81,4.11-2.8,4.11c-.15.22,0,.5.34.5h5.88v-.7Z"/><path class="cls-2" d="M153.37,169.17a.38.38,0,0,0-.3.15l-3,4.41a.28.28,0,0,0-.05.16.33.33,0,0,0,.35.3h3.28v-.25h-3.28c-.05,0-.08,0-.08-.05l3-4.43a.11.11,0,0,1,.08,0,.11.11,0,0,1,.07,0l.2.3v-.47A.36.36,0,0,0,153.37,169.17Z"/><path class="cls-1" d="M153.27,170.74l-.83,1.2-.82,1.21a.07.07,0,0,0,0,0c0,.05,0,.09.11.09h1.92v-.24H152l.66-1,.71-1,.27.4V171l-.17-.25A.12.12,0,0,0,153.27,170.74Z"/><path class="cls-3" d="M140.16,166.75l2.8,4.1,2.81,4.11a.42.42,0,0,0,.68,0l2.8-4.11,2.81-4.1c.15-.23,0-.5-.34-.5H140.5C140.2,166.25,140,166.52,140.16,166.75Zm6,.2h4.33c.24,0,.38.21.27.39l-2.17,3.17-2.17,3.17a.33.33,0,0,1-.53,0l-2.16-3.17-2.17-3.17c-.12-.18,0-.39.27-.39Z"/><path class="cls-2" d="M142.75,167.87a.3.3,0,0,0,.05.16l3,4.41a.37.37,0,0,0,.3.14.34.34,0,0,0,.29-.14l3-4.41a.3.3,0,0,0,.05-.16.33.33,0,0,0-.34-.31h-6A.33.33,0,0,0,142.75,167.87Zm6.37-.05s.08,0,.08.05l-3,4.43a.11.11,0,0,1-.07,0,.11.11,0,0,1-.08,0l-3-4.43s0-.05.08-.05Z"/><path class="cls-3" d="M144.35,168.56a.09.09,0,0,0,0,.05l.82,1.2L146,171a.13.13,0,0,0,.2,0l.82-1.21.82-1.2a.06.06,0,0,0,0-.05.11.11,0,0,0-.12-.1h-3.29A.1.1,0,0,0,144.35,168.56Zm1.76.15h1.37l-.66,1-.71,1-.71-1-.66-1Z"/><path class="cls-1" d="M133.18,175.51h11.21c.31,0,.5-.28.35-.5l-2.81-4.11-2.8-4.11a.44.44,0,0,0-.69,0l-2.8,4.11-2.8,4.11C132.69,175.23,132.88,175.51,133.18,175.51Zm5.61-.7h-4.34c-.23,0-.38-.22-.26-.39l2.17-3.17,2.16-3.18a.34.34,0,0,1,.53,0l2.17,3.18,2.16,3.17c.12.17,0,.39-.26.39Z"/><path class="cls-2" d="M142.14,173.89a.28.28,0,0,0,0-.16l-3-4.41a.35.35,0,0,0-.29-.15.38.38,0,0,0-.3.15l-3,4.41a.28.28,0,0,0,0,.16.33.33,0,0,0,.35.3h6A.32.32,0,0,0,142.14,173.89Zm-6.36.05c-.05,0-.08,0-.08-.05l3-4.43a.11.11,0,0,1,.08,0,.11.11,0,0,1,.07,0l3,4.43s0,.05-.08.05Z"/><path class="cls-1" d="M140.55,173.2a.08.08,0,0,0,0,0l-.82-1.21-.82-1.2a.12.12,0,0,0-.2,0l-.83,1.2-.82,1.21a.07.07,0,0,0,0,0c0,.05,0,.09.11.09h3.29C140.5,173.29,140.55,173.25,140.55,173.2Zm-1.76-.15h-1.38l.67-1,.71-1,.71,1,.66,1Z"/><path class="cls-3" d="M131.53,166.25h-5.61c-.3,0-.49.27-.34.5l2.8,4.1,2.8,4.11a.43.43,0,0,0,.69,0l2.8-4.11,2.81-4.1c.15-.23,0-.5-.35-.5Zm0,.7h4.33c.24,0,.38.21.26.39L134,170.51l-2.17,3.17a.33.33,0,0,1-.53,0l-2.16-3.17-2.17-3.17c-.12-.18,0-.39.26-.39Z"/><path class="cls-2" d="M128.17,167.87a.3.3,0,0,0,.05.16l3,4.41a.37.37,0,0,0,.3.14.34.34,0,0,0,.29-.14l3-4.41a.3.3,0,0,0,0-.16.33.33,0,0,0-.34-.31h-6A.33.33,0,0,0,128.17,167.87Zm6.37-.05c.05,0,.08,0,.08.05l-3,4.43a.11.11,0,0,1-.07,0,.11.11,0,0,1-.08,0l-3-4.43s0-.05.08-.05Z"/><path class="cls-3" d="M129.77,168.56a.09.09,0,0,0,0,.05l.82,1.2.83,1.21a.13.13,0,0,0,.2,0l.82-1.21.82-1.2s0,0,0-.05a.11.11,0,0,0-.12-.1h-3.29A.1.1,0,0,0,129.77,168.56Zm1.76.15h1.37l-.66,1-.71,1-.71-1-.67-1Z"/><path class="cls-2" d="M131.32,160.19l-1.74,2.54-1.73,2.54a.17.17,0,0,0,0,.11.24.24,0,0,0,.25.2H135a.23.23,0,0,0,.24-.2.23.23,0,0,0,0-.11l-1.74-2.54-1.73-2.54A.26.26,0,0,0,131.32,160.19ZM133,163l1.4,2h-5.79l1.4-2,1.5-2.2Z"/><path class="cls-2" d="M146.11,165.58h3.47a.23.23,0,0,0,.24-.2.23.23,0,0,0,0-.11l-1.74-2.54-1.73-2.54a.26.26,0,0,0-.42,0l-1.74,2.54-1.73,2.54a.17.17,0,0,0,0,.11.24.24,0,0,0,.25.2Zm0-.52h-2.9l1.4-2,1.5-2.2,1.5,2.2,1.39,2Z"/><path class="cls-1" d="M124.47,168.07l2.17,3.18,2.16,3.17c.12.17,0,.39-.26.39h-4.33v.7h5.6c.31,0,.5-.28.35-.5l-2.81-4.11-2.8-4.11a.41.41,0,0,0-.34-.16v1.31A.33.33,0,0,1,124.47,168.07Z"/><path class="cls-2" d="M127.56,173.89a.28.28,0,0,0,0-.16l-3-4.41a.35.35,0,0,0-.29-.15v.26a.11.11,0,0,1,.07,0l3,4.43s0,.05-.08.05h-3v.25h3A.32.32,0,0,0,127.56,173.89Z"/><path class="cls-1" d="M126,173.2a.08.08,0,0,0,0,0l-.82-1.21-.82-1.2a.1.1,0,0,0-.1-.05V171l.71,1,.66,1h-1.37v.24h1.64C125.92,173.29,126,173.25,126,173.2Z"/><path class="cls-1" d="M153.64,145.78v29.73a.75.75,0,0,0,.77-.74V145.21a.75.75,0,0,0-.77-.75v1.32Z"/><path class="cls-1" d="M124.21,145.78v29.73a.75.75,0,0,1-.77-.74V145.21a.75.75,0,0,1,.77-.75v1.32Z"/><path class="cls-1" d="M27.35,145l2.8,4.11,2.8,4.11a.44.44,0,0,0,.62.07V151.9a.34.34,0,0,1-.53,0l-2.17-3.17-2.16-3.18c-.12-.17,0-.38.26-.38h4.61v-.71H27.69C27.38,144.46,27.19,144.74,27.35,145Z"/><path class="cls-2" d="M29.94,146.09a.33.33,0,0,0,0,.16l3,4.4a.33.33,0,0,0,.3.15.36.36,0,0,0,.27-.12v-.47l-.2.3a.07.07,0,0,1-.07,0,.08.08,0,0,1-.08,0l-3-4.42s0-.06.08-.06h3.28v-.25H30.29A.33.33,0,0,0,29.94,146.09Z"/><path class="cls-1" d="M31.65,146.68c-.07,0-.12,0-.12.1a.08.08,0,0,0,0,0l.82,1.21.82,1.2a.13.13,0,0,0,.21,0l.17-.25v-.45l-.27.4-.72-1-.66-1h1.65v-.24H31.65Z"/><path class="cls-3" d="M26,153.73h5.6c.31,0,.5-.28.35-.51l-2.81-4.1L26.38,145a.44.44,0,0,0-.69,0l-2.8,4.11-2.8,4.1c-.16.23,0,.51.34.51Zm0-.71H21.7c-.23,0-.38-.21-.26-.39l2.16-3.17,2.17-3.17a.34.34,0,0,1,.53,0l2.17,3.17,2.16,3.17c.12.18,0,.39-.26.39Z"/><path class="cls-2" d="M29.39,152.1a.33.33,0,0,0-.05-.16l-3-4.41a.34.34,0,0,0-.29-.14.35.35,0,0,0-.3.14l-3,4.41a.31.31,0,0,0,.3.47h6A.33.33,0,0,0,29.39,152.1Zm-6.36.05c-.05,0-.08,0-.08-.05l3-4.42a.09.09,0,0,1,.08,0,.09.09,0,0,1,.07,0l3,4.42s0,.05-.08.05Z"/><path class="cls-3" d="M27.8,151.41l0,0-.82-1.2L26.14,149a.15.15,0,0,0-.21,0l-.82,1.21-.82,1.2,0,0a.11.11,0,0,0,.12.1h3.29A.11.11,0,0,0,27.8,151.41ZM26,151.26H24.66l.66-1,.72-1,.71,1,.66,1Z"/><path class="cls-1" d="M12.76,145l2.81,4.11,2.8,4.11a.44.44,0,0,0,.69,0l2.8-4.11,2.8-4.11c.16-.22,0-.5-.34-.5H13.11C12.8,144.46,12.61,144.74,12.76,145Zm6,.21h4.34c.23,0,.38.21.26.38l-2.16,3.18L19,151.9a.34.34,0,0,1-.53,0l-2.17-3.17-2.16-3.18c-.12-.17,0-.38.26-.38Z"/><path class="cls-2" d="M15.36,146.09a.33.33,0,0,0,.05.16l3,4.4a.33.33,0,0,0,.29.15.33.33,0,0,0,.3-.15l3-4.4a.31.31,0,0,0-.3-.47h-6A.33.33,0,0,0,15.36,146.09Zm6.36-.06c.05,0,.08,0,.08.06l-3,4.42a.08.08,0,0,1-.08,0,.07.07,0,0,1-.07,0l-3-4.42s0-.06.08-.06Z"/><path class="cls-1" d="M17,146.78l0,0,.82,1.21.82,1.2a.13.13,0,0,0,.21,0l.82-1.2.82-1.21,0,0c0-.06-.05-.1-.12-.1H17.07C17,146.68,17,146.72,17,146.78Zm1.76.14h1.38l-.67,1-.71,1-.71-1-.66-1Z"/><path class="cls-3" d="M17.4,153.22l-2.8-4.1L11.8,145a.44.44,0,0,0-.69,0l-2.8,4.11-2.81,4.1c-.15.23,0,.51.35.51H17.06C17.37,153.73,17.56,153.45,17.4,153.22Zm-5.95-.2H7.12c-.23,0-.38-.21-.26-.39L9,149.46l2.17-3.17a.34.34,0,0,1,.53,0l2.17,3.17,2.16,3.17c.12.18,0,.39-.26.39Z"/><path class="cls-2" d="M14.81,152.1a.33.33,0,0,0-.05-.16l-3-4.41a.35.35,0,0,0-.3-.14.34.34,0,0,0-.29.14l-3,4.41a.31.31,0,0,0,.3.47h6A.33.33,0,0,0,14.81,152.1Zm-6.36.05c-.06,0-.08,0-.08-.05l3-4.42a.09.09,0,0,1,.07,0,.09.09,0,0,1,.08,0l3,4.42s0,.05-.08.05Z"/><path class="cls-3" d="M13.22,151.41l0,0-.82-1.2L11.56,149a.15.15,0,0,0-.21,0l-.82,1.21-.82,1.2,0,0a.11.11,0,0,0,.12.1H13.1A.11.11,0,0,0,13.22,151.41Zm-1.77-.15H10.08l.66-1,.71-1,.72,1,.66,1Z"/><path class="cls-2" d="M11.45,154.39H8a.23.23,0,0,0-.25.21.19.19,0,0,0,0,.1l1.74,2.54,1.73,2.54a.27.27,0,0,0,.43,0l1.73-2.54,1.74-2.54a.19.19,0,0,0,0-.1.23.23,0,0,0-.25-.21Zm0,.52h2.9L13,157l-1.5,2.2L10,157l-1.4-2Z"/><path class="cls-2" d="M22.32,154.6a.19.19,0,0,0,0,.1l1.74,2.54,1.73,2.54a.27.27,0,0,0,.43,0L28,157.24l1.74-2.54a.19.19,0,0,0,0-.1.23.23,0,0,0-.25-.21H22.57A.23.23,0,0,0,22.32,154.6Zm3.72.31h2.89l-1.4,2L26,159.15l-1.5-2.2-1.4-2Z"/><path class="cls-1" d="M8.47,145.17c.23,0,.38.21.26.38l-2.16,3.18L4.4,151.9a.31.31,0,0,1-.27.13v1.32a.43.43,0,0,0,.35-.17l2.8-4.11,2.8-4.11c.16-.22,0-.5-.34-.5H4.13v.71Z"/><path class="cls-2" d="M4.43,150.65l3-4.4a.31.31,0,0,0-.3-.47h-3V146h3c.05,0,.08,0,.08.06l-3,4.42a.08.08,0,0,1-.08,0v.26A.33.33,0,0,0,4.43,150.65Z"/><path class="cls-1" d="M4.23,149.23l.83-1.2.82-1.21,0,0c0-.06-.05-.1-.12-.1H4.13v.24H5.51l-.67,1-.71,1v.35A.1.1,0,0,0,4.23,149.23Z"/><path class="cls-1" d="M18.71,165.18a5.1,5.1,0,1,0-5.26-5.09A5.18,5.18,0,0,0,18.71,165.18Zm0-9a3.9,3.9,0,1,1-4,3.9A4,4,0,0,1,18.71,156.19Z"/><ellipse class="cls-3" cx="18.71" cy="160.09" rx="1.48" ry="1.43"/><path class="cls-1" d="M33.3,164a3.9,3.9,0,1,1,0-7.79h.27V155H33.3a5.1,5.1,0,1,0,0,10.19h.27V164Z"/><path class="cls-3" d="M31.82,160.09a1.45,1.45,0,0,0,1.48,1.42,1.23,1.23,0,0,0,.27,0v-2.81l-.27,0A1.45,1.45,0,0,0,31.82,160.09Z"/><path class="cls-1" d="M8.16,160.09a4,4,0,0,1-4,3.89v1.2a5.1,5.1,0,1,0,0-10.19v1.2A4,4,0,0,1,8.16,160.09Z"/><path class="cls-3" d="M5.61,160.09a1.45,1.45,0,0,0-1.48-1.43v2.85A1.45,1.45,0,0,0,5.61,160.09Z"/><path class="cls-1" d="M33.3,174.81H29c-.23,0-.38-.22-.26-.39l2.16-3.17L33,168.07a.34.34,0,0,1,.53,0v-1.35a.44.44,0,0,0-.62.07l-2.8,4.11L27.35,175c-.16.22,0,.5.34.5h5.88v-.7Z"/><path class="cls-2" d="M33.3,169.17a.36.36,0,0,0-.3.15l-3,4.41a.28.28,0,0,0,0,.16.33.33,0,0,0,.35.3h3.28v-.25H30.29c-.06,0-.08,0-.08-.05l3-4.43a.11.11,0,0,1,.08,0,.11.11,0,0,1,.07,0l.2.3v-.47A.36.36,0,0,0,33.3,169.17Z"/><path class="cls-1" d="M33.19,170.74l-.82,1.2-.82,1.21a.08.08,0,0,0,0,0c0,.05,0,.09.12.09h1.92v-.24H31.92l.66-1,.72-1,.27.4V171l-.17-.25A.13.13,0,0,0,33.19,170.74Z"/><path class="cls-3" d="M20.09,166.75l2.8,4.1,2.8,4.11a.43.43,0,0,0,.69,0l2.8-4.11,2.81-4.1c.15-.23,0-.5-.35-.5H20.43C20.12,166.25,19.93,166.52,20.09,166.75ZM26,167h4.33c.23,0,.38.21.26.39l-2.16,3.17-2.17,3.17a.33.33,0,0,1-.53,0l-2.17-3.17-2.16-3.17c-.12-.18,0-.39.26-.39Z"/><path class="cls-2" d="M22.68,167.87a.3.3,0,0,0,.05.16l3,4.41a.35.35,0,0,0,.3.14.34.34,0,0,0,.29-.14l3-4.41a.3.3,0,0,0,.05-.16.33.33,0,0,0-.35-.31H23A.33.33,0,0,0,22.68,167.87Zm6.36-.05c.06,0,.08,0,.08.05l-3,4.43a.11.11,0,0,1-.07,0,.11.11,0,0,1-.08,0l-3-4.43s0-.05.08-.05Z"/><path class="cls-3" d="M24.27,168.56s0,0,0,.05l.82,1.2.82,1.21a.15.15,0,0,0,.21,0l.82-1.21.82-1.2s0,0,0-.05a.11.11,0,0,0-.12-.1H24.39A.11.11,0,0,0,24.27,168.56Zm1.77.15h1.37l-.66,1-.71,1-.72-1-.66-1Z"/><path class="cls-1" d="M13.11,175.51H24.32c.31,0,.5-.28.34-.5l-2.8-4.11-2.8-4.11a.44.44,0,0,0-.69,0l-2.8,4.11L12.76,175C12.61,175.23,12.8,175.51,13.11,175.51Zm5.6-.7H14.38c-.23,0-.38-.22-.26-.39l2.16-3.17,2.17-3.18a.34.34,0,0,1,.53,0l2.17,3.18,2.16,3.17c.12.17,0,.39-.26.39Z"/><path class="cls-2" d="M22.07,173.89a.28.28,0,0,0-.05-.16l-3-4.41a.36.36,0,0,0-.3-.15.35.35,0,0,0-.29.15l-3,4.41a.28.28,0,0,0-.05.16.33.33,0,0,0,.35.3h6A.33.33,0,0,0,22.07,173.89Zm-6.36.05c-.06,0-.08,0-.08-.05l3-4.43a.11.11,0,0,1,.07,0,.11.11,0,0,1,.08,0l3,4.43s0,.05-.08.05Z"/><path class="cls-1" d="M20.48,173.2a.08.08,0,0,0,0,0l-.82-1.21-.82-1.2a.13.13,0,0,0-.21,0l-.82,1.2L17,173.15a.08.08,0,0,0,0,0c0,.05.05.09.12.09h3.29C20.43,173.29,20.48,173.25,20.48,173.2Zm-1.77-.15H17.34l.66-1,.71-1,.71,1,.67,1Z"/><path class="cls-3" d="M11.45,166.25H5.85c-.31,0-.5.27-.35.5l2.81,4.1,2.8,4.11a.43.43,0,0,0,.69,0l2.8-4.11,2.8-4.1c.16-.23,0-.5-.34-.5Zm0,.7h4.34c.23,0,.38.21.26.39l-2.16,3.17-2.17,3.17a.33.33,0,0,1-.53,0L9,170.51l-2.16-3.17c-.12-.18,0-.39.26-.39Z"/><path class="cls-2" d="M8.1,167.87a.3.3,0,0,0,.05.16l3,4.41a.34.34,0,0,0,.29.14.35.35,0,0,0,.3-.14l3-4.41a.3.3,0,0,0,.05-.16.33.33,0,0,0-.35-.31h-6A.33.33,0,0,0,8.1,167.87Zm6.36-.05s.08,0,.08.05l-3,4.43a.11.11,0,0,1-.08,0,.11.11,0,0,1-.07,0l-3-4.43s0-.05.08-.05Z"/><path class="cls-3" d="M9.69,168.56s0,0,0,.05l.82,1.2.82,1.21a.15.15,0,0,0,.21,0l.82-1.21.82-1.2s0,0,0-.05a.11.11,0,0,0-.12-.1H9.81A.11.11,0,0,0,9.69,168.56Zm1.76.15h1.38l-.66,1-.72,1-.71-1-.66-1Z"/><path class="cls-2" d="M11.24,160.19l-1.73,2.54-1.74,2.54a.21.21,0,0,0,.22.31h6.93a.21.21,0,0,0,.22-.31l-1.74-2.54-1.73-2.54A.27.27,0,0,0,11.24,160.19ZM13,163l1.4,2H8.56l1.4-2,1.49-2.2Z"/><path class="cls-2" d="M26,165.58H29.5a.21.21,0,0,0,.22-.31L28,162.73l-1.73-2.54a.27.27,0,0,0-.43,0l-1.73,2.54-1.74,2.54a.21.21,0,0,0,.22.31Zm0-.52h-2.9l1.4-2,1.5-2.2,1.49,2.2,1.4,2Z"/><path class="cls-1" d="M4.4,168.07l2.17,3.18,2.16,3.17c.12.17,0,.39-.26.39H4.13v.7H9.74c.31,0,.5-.28.34-.5l-2.8-4.11-2.8-4.11a.42.42,0,0,0-.35-.16v1.31A.34.34,0,0,1,4.4,168.07Z"/><path class="cls-2" d="M7.49,173.89a.28.28,0,0,0,0-.16l-3-4.41a.36.36,0,0,0-.3-.15v.26a.11.11,0,0,1,.08,0l3,4.43s0,.05-.08.05h-3v.25h3A.33.33,0,0,0,7.49,173.89Z"/><path class="cls-1" d="M5.9,173.2a.08.08,0,0,0,0,0l-.82-1.21-.83-1.2a.1.1,0,0,0-.1-.05V171l.71,1,.67,1H4.13v.24H5.78C5.85,173.29,5.9,173.25,5.9,173.2Z"/><path class="cls-1" d="M33.57,145.78v29.73a.75.75,0,0,0,.77-.74V145.21a.75.75,0,0,0-.77-.75v1.32Z"/><path class="cls-1" d="M4.13,145.78v29.73a.75.75,0,0,1-.76-.74V145.21a.75.75,0,0,1,.76-.75v1.32Z"/><polygon class="cls-4" points="52.68 24.59 35.97 23.73 35.97 40.98 78.17 40.98 78.17 33.03 52.68 33.03 52.68 24.59"/><polygon class="cls-4" points="103.66 24.59 103.66 33.03 78.17 33.03 78.17 40.98 120.37 40.98 120.37 23.73 103.66 24.59"/><path class="cls-4" d="M89.05,33.35c-2,0-10.82-.31-10.82-.31V43.71s14,.48,14,12.53c-.09,13.9-12,13.37-12,13.37H38.72A2.81,2.81,0,0,0,36,72.47V88.89a2.81,2.81,0,0,0,2.75,2.86H78.23V90h-23a2,2,0,0,1-1.92-2V80.41a1.57,1.57,0,0,1,1.54-1.6H89.3s17.63-1.63,17.63-23.94C106.93,34.54,91.09,33.35,89.05,33.35Z"/><path class="cls-4" d="M69.79,33.35c2,0,10.82-.31,10.82-.31V43.71s-14,.48-14,12.53c.09,13.9,12,13.37,12,13.37h41.47a2.8,2.8,0,0,1,2.74,2.86V88.89a2.8,2.8,0,0,1-2.74,2.86H77.23V90h26.33a2,2,0,0,0,1.93-2V80.41a1.57,1.57,0,0,0-1.54-1.6H69.54S51.9,77.18,51.9,54.87C51.9,34.54,67.75,33.35,69.79,33.35Z"/><path class="cls-1" d="M146.85,92.15l-3.21-3.94a4,4,0,0,0-3-1.56c-2,0-122.66,0-124.62,0a4,4,0,0,0-3,1.56L9.76,92.15s-1.88,2.19-1.55,4.51c.48,3.33,8.64,3.15,8.64,3.15H139.76s8.16.18,8.64-3.15C148.73,94.34,146.85,92.15,146.85,92.15Z"/><path class="cls-3" d="M33.74,23.73v22a1.19,1.19,0,0,0,1.19,1.19H78.3V36.22H51.38V24.89Z"/><path class="cls-3" d="M147.38,96a1.11,1.11,0,0,0-.83-.26h-.11c-.65,0-6.75,0-18.64,0-18.1,0-44.66,0-49.5,0s-31.4,0-49.5,0c-11.89,0-18,0-18.63,0h-.11a1.11,1.11,0,0,0-.83.26.9.9,0,0,0-.22.6C9.3,98.25,13.14,99,16.61,99H140c3.46,0,7.3-.76,7.6-2.42A.9.9,0,0,0,147.38,96Z"/><polygon class="cls-4" points="53.35 86.31 53.51 88.83 105.49 88.83 105.49 84.7 121.78 84.04 121.78 93.87 49.17 93.87 49.17 86.63 53.35 86.31"/><path class="cls-3" d="M105.76,46.54c-4.65-9.31-14.59-10-16.21-10-2.13,0-11.25-.31-11.25-.31V46.9"/><path class="cls-3" d="M89.55,36.53c-2.13,0-11.25-.31-11.25-.31V46.9s14.6.48,14.53,12.53C92.74,73.33,80.34,72.8,80.34,72.8H35.62A1.23,1.23,0,0,0,34.38,74V93.88a1.06,1.06,0,0,0,1.06,1.06H78.3V93.22H53.07a.63.63,0,0,1-.62-.63v-9a1.59,1.59,0,0,1,1.6-1.6H89.82s18.33-1.63,18.33-24C108.15,37.73,91.68,36.53,89.55,36.53Z"/><path class="cls-1" d="M123.47,72.8H78.75s-12.4.53-12.49-13.37c-.08-12,14.52-12.53,14.52-12.53h40.9a1.19,1.19,0,0,0,1.18-1.19v-22l-17.64,1.16V36.22H78.3v.09c-2.86.09-7.35.22-8.76.22-2.13,0-18.6,1.2-18.6,21.52,0,22.32,18.33,24,18.33,24H105a1.59,1.59,0,0,1,1.6,1.6v9a.63.63,0,0,1-.63.63H77.26v1.72h46.39a1.07,1.07,0,0,0,1.06-1.06V74A1.24,1.24,0,0,0,123.47,72.8Z"/><path class="cls-5" d="M57.68,43.14A15.51,15.51,0,0,1,61.79,40,16.71,16.71,0,0,1,66,38.48a12.78,12.78,0,0,1,3.16-.3c.77,0,1.2.16,1.2.3s-1.67.48-4,1.24a23.46,23.46,0,0,0-3.86,1.61,19.76,19.76,0,0,0-3.88,2.75,17,17,0,0,0-2.78,3.39A16.65,16.65,0,0,0,55,49.12c-.28.54-.49,1.09-.71,1.64-.12.28-.19.57-.29.85s-.19.58-.27.88-.15.61-.23.92-.08.32-.11.48l-.09.49c-.06.34-.12.68-.18,1l-.13,1.11-.07.59,0,.61c0,.42,0,.85-.07,1.3,0-.45,0-.89,0-1.3,0-.21,0-.42,0-.62l0-.59c0-.39,0-.76.06-1.13s.08-.71.11-1l.06-.5.08-.49c.05-.33.1-.64.15-1s.14-.62.2-.92a8.89,8.89,0,0,1,.22-.89c.17-.59.33-1.18.56-1.77s.49-1.18.77-1.81A17.12,17.12,0,0,1,57.68,43.14Z"/><path class="cls-6" d="M155.64,3.77S154.42,2,149.86,1.91,144,1.07,143.6.74a3,3,0,0,0-3.09-.47c-1.16.7-14.08,10.1-24.17,12.22s-19.73,3.72-38.1,4.38c-18.38-.66-28-2.26-38.1-4.38S17.12,1,16,.27a3,3,0,0,0-3.09.47c-.36.33-1.69,1-6.25,1.17S.83,3.77.83,3.77A2.31,2.31,0,0,0,.75,7.25C3.9,10.12,11.24,15.83,24.46,21c18.15,7.09,52.15,6.35,53.78,6.31S113.86,28.08,132,21c13.22-5.16,20.57-10.87,23.71-13.74A2.3,2.3,0,0,0,155.64,3.77Z"/><g class="cls-7"><path class="cls-4" d="M105.15,27.22a146.24,146.24,0,0,0,17.67-2.54v-.95a142.37,142.37,0,0,1-17.67,2.64Z"/><path class="cls-4" d="M33.65,24.36a138,138,0,0,0,17.63,2.72v-.71a140.15,140.15,0,0,1-17.63-2.62Z"/></g><path class="cls-3" d="M155,4.59a.91.91,0,0,0-.62-.22,2.53,2.53,0,0,0-1.21.4c-1.84,1.11-3.61,2.22-5.31,3.3C134.49,16.5,123,23.79,79.35,24.17H77.13C33.51,23.79,22,16.5,8.65,8.07,7,7,5.19,5.88,3.34,4.77a2.49,2.49,0,0,0-1.21-.4.92.92,0,0,0-.62.22,1.22,1.22,0,0,0-.45.92,1.25,1.25,0,0,0,.41,1C4.62,9.34,11.85,14.93,24.85,20c14.51,5.67,39.35,6.28,49.36,6.28l2.89,0h2.42l2.75,0c10,0,34.85-.61,49.36-6.28,13-5.07,20.22-10.66,23.37-13.53a1.24,1.24,0,0,0,0-1.88Z"/><path class="cls-8" d="M34.38,93.22h90.33a0,0,0,0,1,0,0v.67a1,1,0,0,1-1,1H35.46a1.08,1.08,0,0,1-1.08-1.08v-.64a0,0,0,0,1,0,0Z"/><path class="cls-9" d="M35.23,25.6V45.23a.39.39,0,0,0,.38.39h0a.39.39,0,0,0,.39-.36c.16-2.22-.77-17.85,7.27-18,.39,0,.2-.72-.19-.72a22.19,22.19,0,0,1-7.33-1.35A.39.39,0,0,0,35.23,25.6Z"/><path class="cls-9" d="M47,73.55H36.68a1.26,1.26,0,0,0-1.27,1.25V93h1l.78-11.41a7.89,7.89,0,0,1,2-4.64h0a8,8,0,0,1,5.1-2.64L47,74A.22.22,0,0,0,47,73.55Z"/><path class="cls-10" d="M106.74,81.87a.16.16,0,0,0-.11.27,1.53,1.53,0,0,1,.39,1.13v9.4a.31.31,0,0,0,.3.32h0a.31.31,0,0,0,.31-.32V82.22a.35.35,0,0,0-.34-.35Z"/><path class="cls-9" d="M52.27,81.87a.16.16,0,0,1,.11.27A1.53,1.53,0,0,0,52,83.27v9.4a.31.31,0,0,1-.3.32h0a.31.31,0,0,1-.31-.32V82.22a.35.35,0,0,1,.34-.35Z"/><path class="cls-10" d="M116.33,73.33h7.31a.54.54,0,0,1,.54.55V92.54a.29.29,0,0,1-.3.3h0a.3.3,0,0,1-.31-.3V75a1.07,1.07,0,0,0-1-1.07l-6.24-.29A.16.16,0,0,1,116.33,73.33Z"/><path class="cls-10" d="M122.15,45.52V24.8a17.61,17.61,0,0,0-1.8.36.92.92,0,0,0-.63,1.26,7.92,7.92,0,0,1,.65,2.17c.17,1.41.87,14.6,1,17a.38.38,0,0,0,.39.36h0A.39.39,0,0,0,122.15,45.52Z"/><path class="cls-3" d="M123,41v4.73a.14.14,0,0,0,.22.14l1.79-1.18,1.8-1.18a.19.19,0,0,0,0-.29l-1.8-1.18-1.79-1.18A.14.14,0,0,0,123,41Zm.31.54a.11.11,0,0,1,.17-.11l1.38.91,1.39.91a.14.14,0,0,1,0,.22l-1.39.92-1.38.91a.11.11,0,0,1-.17-.11V41.55Z"/><path class="cls-2" d="M123.62,42.1v2.54a.14.14,0,0,0,.13.15l.07,0,1.93-1.27a.16.16,0,0,0,.06-.13.14.14,0,0,0-.06-.12L123.82,42l-.07,0A.13.13,0,0,0,123.62,42.1Zm.11,0s0,0,0,0l1.93,1.27,0,0s0,0,0,0l-1.93,1.27s0,0,0,0Z"/><path class="cls-3" d="M124,42.68v1.39a0,0,0,0,0,0,0h0l.53-.35.53-.34a.08.08,0,0,0,0-.09L124.6,43l-.53-.34h0A0,0,0,0,0,124,42.68Zm.11.11.42.28.46.3-.46.3-.42.28V42.79Z"/><path class="cls-3" d="M123,24.09v4.73a.14.14,0,0,0,.22.14l1.79-1.18,1.8-1.18a.19.19,0,0,0,0-.29l-1.8-1.18L123.26,24A.14.14,0,0,0,123,24.09Zm.31.54a.11.11,0,0,1,.17-.11l1.38.91,1.39.92a.14.14,0,0,1,0,.22l-1.39.91-1.38.91a.11.11,0,0,1-.17-.11V24.63Z"/><path class="cls-2" d="M123.62,25.19v2.53a.14.14,0,0,0,.13.15l.07,0,1.93-1.27a.14.14,0,0,0,.06-.12.16.16,0,0,0-.06-.13l-1.93-1.27-.07,0A.14.14,0,0,0,123.62,25.19Zm.11,0s0,0,0,0l1.93,1.28s0,0,0,0l0,0-1.93,1.27s0,0,0,0Z"/><path class="cls-3" d="M124,25.76v1.39a0,0,0,0,0,0,.05h0l.53-.34.53-.35a.07.07,0,0,0,0-.09l-.53-.34-.53-.35h0A0,0,0,0,0,124,25.76Zm.11.12.42.28.46.3-.46.3-.42.28V25.88Z"/><path class="cls-3" d="M123,29.73v4.73a.14.14,0,0,0,.22.14l1.79-1.18,1.8-1.18a.19.19,0,0,0,0-.29l-1.8-1.18-1.79-1.18A.14.14,0,0,0,123,29.73Zm.31.54a.11.11,0,0,1,.17-.11l1.38.91,1.39.91a.15.15,0,0,1,0,.23l-1.39.91-1.38.91a.11.11,0,0,1-.17-.11V30.27Z"/><path class="cls-2" d="M123.62,30.83v2.53a.14.14,0,0,0,.13.15l.07,0,1.93-1.27a.14.14,0,0,0,.06-.12.15.15,0,0,0-.06-.13l-1.93-1.27-.07,0A.14.14,0,0,0,123.62,30.83Zm.11,0s0,0,0,0l1.93,1.27,0,0,0,0-1.93,1.27s0,0,0,0Z"/><path class="cls-3" d="M124,31.4v1.39a0,0,0,0,0,0,.05s0,0,0,0l.53-.35.53-.34a.08.08,0,0,0,0-.09l-.53-.34-.53-.35h0A0,0,0,0,0,124,31.4Zm.11.12.42.28.46.3-.46.29-.42.28V31.52Z"/><path class="cls-3" d="M123,35.37V40.1a.14.14,0,0,0,.22.14l1.79-1.18,1.8-1.18a.19.19,0,0,0,0-.29l-1.8-1.18-1.79-1.18A.14.14,0,0,0,123,35.37Zm.31.54a.11.11,0,0,1,.17-.11l1.38.91,1.39.91a.15.15,0,0,1,0,.23l-1.39.91-1.38.91a.11.11,0,0,1-.17-.11V35.91Z"/><path class="cls-2" d="M123.62,36.47V39a.14.14,0,0,0,.13.15l.07,0,1.93-1.27a.15.15,0,0,0,.06-.13.14.14,0,0,0-.06-.12l-1.93-1.27-.07,0A.14.14,0,0,0,123.62,36.47Zm.11,0s0,0,0,0l1.93,1.27,0,0a.08.08,0,0,1,0,0L123.75,39s0,0,0,0Z"/><path class="cls-3" d="M124,37v1.39a0,0,0,0,0,0,0h0l.53-.35.53-.34a.08.08,0,0,0,0-.09l-.53-.34-.53-.35h0A0,0,0,0,0,124,37Zm.11.12.42.27.46.3-.46.3-.42.28V37.16Z"/><path class="cls-10" d="M126.8,26.33,123.22,24s-.09,0-.1.07l.44.37,2.73,1.81.08,0,.45.22a.11.11,0,0,0,0-.06A.1.1,0,0,0,126.8,26.33Z"/><path class="cls-10" d="M126.8,32l-3.58-2.37s-.09,0-.1.07l.44.38,2.73,1.8.08,0,.45.23a.14.14,0,0,0,0-.07S126.83,32,126.8,32Z"/><path class="cls-10" d="M126.8,37.61l-3.58-2.37s-.09,0-.1.07l.44.38,2.73,1.8.08,0,.45.23a.14.14,0,0,0,0-.07S126.83,37.62,126.8,37.61Z"/><path class="cls-3" d="M125,74.35v5.33a.17.17,0,0,0,.25.17l2-1.34,2-1.33a.2.2,0,0,0,0-.32l-2-1.34-2-1.33A.17.17,0,0,0,125,74.35Zm.35.61a.13.13,0,0,1,.19-.13l1.56,1,1.56,1a.15.15,0,0,1,0,.25l-1.56,1-1.56,1a.13.13,0,0,1-.19-.12V75Z"/><path class="cls-2" d="M125.6,75.59v2.86a.16.16,0,0,0,.15.16l.08,0L128,77.16a.17.17,0,0,0,0-.28l-2.17-1.43a.11.11,0,0,0-.08,0A.16.16,0,0,0,125.6,75.59Zm.13,0s0,0,0,0L127.93,77l0,0s0,0,0,0l-2.18,1.44s0,0,0,0Z"/><path class="cls-3" d="M126,76.24V77.8a.06.06,0,0,0,0,.06h0l.59-.39.59-.39a.07.07,0,0,0,0-.1l-.59-.39-.59-.39h0A.06.06,0,0,0,126,76.24Zm.13.13.47.31.51.34-.51.34-.47.31v-1.3Z"/><path class="cls-3" d="M125,80.71V86a.17.17,0,0,0,.25.16l2-1.33,2-1.33a.21.21,0,0,0,0-.33l-2-1.33-2-1.33A.17.17,0,0,0,125,80.71Zm.35.61c0-.12.11-.19.19-.13l1.56,1,1.56,1a.15.15,0,0,1,0,.25l-1.56,1-1.56,1a.13.13,0,0,1-.19-.13V81.32Z"/><path class="cls-2" d="M125.6,81.94V84.8a.17.17,0,0,0,.15.17.11.11,0,0,0,.08,0L128,83.51a.17.17,0,0,0,.07-.14.19.19,0,0,0-.07-.14l-2.17-1.42a.11.11,0,0,0-.08,0A.16.16,0,0,0,125.6,81.94Zm.13,0s0,0,0,0l2.18,1.43s0,0,0,0a.05.05,0,0,1,0,0l-2.18,1.43s0,0,0,0Z"/><path class="cls-3" d="M126,82.59v1.57a.05.05,0,0,0,0,0h0l.59-.39.59-.39a.06.06,0,0,0,0-.09l-.59-.39-.59-.4h0A.05.05,0,0,0,126,82.59Zm.13.13.47.32.51.33-.51.34-.47.32V82.72Z"/><path class="cls-3" d="M125,87.07v5.32a.17.17,0,0,0,.25.17l2-1.33,2-1.34a.2.2,0,0,0,0-.32l-2-1.33-2-1.34A.17.17,0,0,0,125,87.07Zm.35.6a.13.13,0,0,1,.19-.12l1.56,1,1.56,1a.16.16,0,0,1,0,.26l-1.56,1-1.56,1a.13.13,0,0,1-.19-.12V87.67Z"/><path class="cls-2" d="M125.6,88.3v2.86a.16.16,0,0,0,.15.16.11.11,0,0,0,.08,0L128,89.87a.17.17,0,0,0,0-.28l-2.17-1.43a.11.11,0,0,0-.08,0A.16.16,0,0,0,125.6,88.3Zm.13,0s0,0,0,0l2.18,1.44s0,0,0,0l0,0-2.18,1.43s0,0,0,0Z"/><path class="cls-3" d="M126,89v1.56a.06.06,0,0,0,0,.06h0l.59-.39.59-.39a.07.07,0,0,0,0-.1l-.59-.39-.59-.39h0A.06.06,0,0,0,126,89Zm.13.13.47.31.51.34-.51.34-.47.31v-1.3Z"/><path class="cls-10" d="M129.19,76.88l-4-2.66s-.1,0-.11.07l.5.43,3.08,2,.08,0,.51.26a.11.11,0,0,0,0-.08A.11.11,0,0,0,129.19,76.88Z"/><path class="cls-10" d="M129.19,83.23l-4-2.66s-.1,0-.11.07l.5.43,3.08,2,.08,0,.51.26a.11.11,0,0,0,0-.08A.11.11,0,0,0,129.19,83.23Z"/><path class="cls-10" d="M129.19,89.59l-4-2.67s-.1,0-.11.08l.5.42,3.08,2,.08,0,.51.26a.11.11,0,0,0,0-.08A.11.11,0,0,0,129.19,89.59Z"/><path class="cls-3" d="M33.9,74.19l-2,1.33-2,1.34a.2.2,0,0,0,0,.32l2,1.33,2,1.34a.17.17,0,0,0,.25-.17V74.35A.17.17,0,0,0,33.9,74.19ZM33.8,77v2.06a.12.12,0,0,1-.19.12l-1.56-1-1.56-1a.16.16,0,0,1,0-.25l1.56-1,1.56-1a.13.13,0,0,1,.19.13Z"/><path class="cls-2" d="M33.35,75.43a.12.12,0,0,0-.08,0L31.1,76.88a.18.18,0,0,0,0,.28l2.17,1.43.08,0a.16.16,0,0,0,.15-.16V75.59A.16.16,0,0,0,33.35,75.43Zm0,3a0,0,0,0,1,0,0l-2.18-1.44s0,0,0,0a.06.06,0,0,1,0,0l2.18-1.43s0,0,0,0Z"/><path class="cls-3" d="M33,76.18h0l-.59.39-.6.39a.07.07,0,0,0,0,.1l.6.39.59.39h0a.06.06,0,0,0,.05-.06V76.24S33,76.18,33,76.18Zm-.07.84v.65l-.48-.31L32,77l.51-.34.48-.31Z"/><path class="cls-3" d="M33.9,80.55l-2,1.33-2,1.33a.21.21,0,0,0,0,.33l2,1.33,2,1.33a.17.17,0,0,0,.25-.16V80.71A.17.17,0,0,0,33.9,80.55Zm-.1,2.82v2.06a.13.13,0,0,1-.19.13l-1.56-1-1.56-1a.16.16,0,0,1,0-.25l1.56-1,1.56-1c.09-.06.19,0,.19.13Z"/><path class="cls-2" d="M33.35,81.78a.13.13,0,0,0-.08,0L31.1,83.23a.19.19,0,0,0-.07.14.17.17,0,0,0,.07.14l2.17,1.43a.13.13,0,0,0,.08,0,.17.17,0,0,0,.15-.17V81.94A.16.16,0,0,0,33.35,81.78Zm0,3s0,0,0,0l-2.18-1.43s0,0,0,0a0,0,0,0,1,0,0l2.18-1.43a0,0,0,0,1,0,0Z"/><path class="cls-3" d="M33,82.54h0l-.59.4-.6.39a.06.06,0,0,0,0,.09l.6.39.59.39h0a0,0,0,0,0,.05,0V82.59A0,0,0,0,0,33,82.54Zm-.07.83V84l-.48-.32L32,83.37l.51-.33.48-.32Z"/><path class="cls-3" d="M33.9,86.9l-2,1.34-2,1.33a.2.2,0,0,0,0,.32l2,1.34,2,1.33a.17.17,0,0,0,.25-.17V87.07A.17.17,0,0,0,33.9,86.9Zm-.1,2.83v2.06a.12.12,0,0,1-.19.12l-1.56-1-1.56-1a.17.17,0,0,1,0-.26l1.56-1,1.56-1a.12.12,0,0,1,.19.12Z"/><path class="cls-2" d="M33.35,88.14a.12.12,0,0,0-.08,0L31.1,89.59a.18.18,0,0,0,0,.28l2.17,1.43a.12.12,0,0,0,.08,0,.16.16,0,0,0,.15-.16V88.3A.16.16,0,0,0,33.35,88.14Zm0,3a0,0,0,0,1,0,0l-2.18-1.43a.06.06,0,0,1,0,0s0,0,0,0l2.18-1.44a0,0,0,0,1,0,0Z"/><path class="cls-3" d="M33,88.89h0l-.59.39-.6.39a.07.07,0,0,0,0,.1l.6.39.59.39h0a.06.06,0,0,0,.05-.06V89A.06.06,0,0,0,33,88.89Zm-.07.84v.65l-.48-.31L32,89.73l.51-.34.48-.31Z"/><path class="cls-10" d="M29.91,76.88l4-2.66s.1,0,.11.07l-.49.43-3.08,2-.09,0-.51.26a.19.19,0,0,1,0-.08A.1.1,0,0,1,29.91,76.88Z"/><path class="cls-10" d="M29.91,83.23l4-2.66s.1,0,.11.07l-.49.43-3.08,2-.09,0-.51.26a.19.19,0,0,1,0-.08A.1.1,0,0,1,29.91,83.23Z"/><path class="cls-10" d="M29.91,89.59l4-2.67s.1,0,.11.08l-.49.42-3.08,2-.09,0-.51.26a.19.19,0,0,1,0-.08A.1.1,0,0,1,29.91,89.59Z"/><path class="cls-10" d="M126.8,43.25l-3.58-2.37s-.09,0-.1.07l.44.38,2.73,1.8.08,0,.45.23a.14.14,0,0,0,0-.07S126.83,43.26,126.8,43.25Z"/><path class="cls-3" d="M33.26,24l-1.79,1.18-1.79,1.18a.18.18,0,0,0,0,.29l1.79,1.18L33.26,29c.1.07.22,0,.22-.14V24.09C33.48,24,33.36,23.88,33.26,24Zm-.09,2.51v1.82a.11.11,0,0,1-.17.11l-1.38-.91-1.39-.91a.14.14,0,0,1,0-.22l1.39-.92L33,24.52a.11.11,0,0,1,.17.11Z"/><path class="cls-2" d="M32.77,25l-.07,0-1.92,1.27a.17.17,0,0,0-.07.13.15.15,0,0,0,.07.12l1.92,1.27.07,0a.15.15,0,0,0,.14-.15V25.19A.15.15,0,0,0,32.77,25Zm0,2.68s0,0,0,0l-1.93-1.27a0,0,0,0,1,0,0s0,0,0,0l1.93-1.28s0,0,0,0Z"/><path class="cls-3" d="M32.47,25.71h0l-.53.35-.52.34a.06.06,0,0,0,0,.09l.52.35.53.34h0a0,0,0,0,0,0-.05V25.76A0,0,0,0,0,32.47,25.71Zm-.06.75V27L32,26.76l-.45-.3.45-.3.43-.28Z"/><path class="cls-3" d="M33.26,29.59l-1.79,1.18L29.68,32a.18.18,0,0,0,0,.29l1.79,1.18,1.79,1.18c.1.07.22,0,.22-.14V29.73C33.48,29.6,33.36,29.52,33.26,29.59Zm-.09,2.51v1.82A.11.11,0,0,1,33,34l-1.38-.91-1.39-.91a.15.15,0,0,1,0-.23l1.39-.91L33,30.16a.11.11,0,0,1,.17.11Z"/><path class="cls-2" d="M32.77,30.68l-.07,0L30.78,32a.16.16,0,0,0-.07.13.15.15,0,0,0,.07.12l1.92,1.27.07,0a.15.15,0,0,0,.14-.15V30.83A.15.15,0,0,0,32.77,30.68Zm0,2.68s0,0,0,0l-1.93-1.27a0,0,0,0,1,0,0,.06.06,0,0,1,0,0l1.93-1.27s0,0,0,0Z"/><path class="cls-3" d="M32.47,31.35h0l-.53.35-.52.34a.06.06,0,0,0,0,.09l.52.34.53.35h0a0,0,0,0,0,0-.05V31.4A0,0,0,0,0,32.47,31.35Zm-.06.75v.57L32,32.39l-.45-.29.45-.3.43-.28Z"/><path class="cls-3" d="M33.26,35.23l-1.79,1.18-1.79,1.18a.18.18,0,0,0,0,.29l1.79,1.18,1.79,1.18c.1.07.22,0,.22-.14V35.37C33.48,35.24,33.36,35.16,33.26,35.23Zm-.09,2.5v1.83a.11.11,0,0,1-.17.11l-1.38-.91-1.39-.91a.15.15,0,0,1,0-.23l1.39-.91L33,35.8a.11.11,0,0,1,.17.11Z"/><path class="cls-2" d="M32.77,36.32l-.07,0-1.92,1.27a.15.15,0,0,0-.07.12.16.16,0,0,0,.07.13l1.92,1.27.07,0a.15.15,0,0,0,.14-.15V36.47A.15.15,0,0,0,32.77,36.32Zm0,2.68s0,0,0,0l-1.93-1.27a.06.06,0,0,1,0,0,0,0,0,0,1,0,0l1.93-1.27s0,0,0,0Z"/><path class="cls-3" d="M32.47,37h0l-.53.35-.52.34a.06.06,0,0,0,0,.09l.52.34.53.35h0a0,0,0,0,0,0,0V37A0,0,0,0,0,32.47,37Zm-.06.74v.58L32,38l-.45-.3.45-.3.43-.27Z"/><path class="cls-3" d="M33.26,40.87l-1.79,1.18-1.79,1.18a.18.18,0,0,0,0,.29l1.79,1.18,1.79,1.18c.1.07.22,0,.22-.14V41C33.48,40.88,33.36,40.8,33.26,40.87Zm-.09,2.5V45.2a.11.11,0,0,1-.17.11l-1.38-.91-1.39-.92a.14.14,0,0,1,0-.22l1.39-.91L33,41.44a.11.11,0,0,1,.17.11Z"/><path class="cls-2" d="M32.77,42l-.07,0-1.92,1.27a.15.15,0,0,0-.07.12.17.17,0,0,0,.07.13l1.92,1.27.07,0a.15.15,0,0,0,.14-.15V42.1A.14.14,0,0,0,32.77,42Zm0,2.68s0,0,0,0L30.84,43.4s0,0,0,0a0,0,0,0,1,0,0l1.93-1.27s0,0,0,0Z"/><path class="cls-3" d="M32.47,42.63h0l-.53.34-.52.35a.06.06,0,0,0,0,.09l.52.34.53.35h0a0,0,0,0,0,0,0V42.68A0,0,0,0,0,32.47,42.63Zm-.06.74V44L32,43.67l-.45-.3.45-.3.43-.28Z"/><path class="cls-10" d="M29.72,26.33,33.3,24s.09,0,.1.07l-.44.37-2.73,1.81-.07,0-.46.22a.11.11,0,0,1,0-.06A.1.1,0,0,1,29.72,26.33Z"/><path class="cls-10" d="M29.72,32,33.3,29.6s.09,0,.1.07l-.44.38-2.73,1.8-.07,0-.46.23a.14.14,0,0,1,0-.07S29.69,32,29.72,32Z"/><path class="cls-10" d="M29.72,37.61l3.58-2.37s.09,0,.1.07l-.44.38-2.73,1.8-.07,0-.46.23a.14.14,0,0,1,0-.07S29.69,37.62,29.72,37.61Z"/><path class="cls-10" d="M29.72,43.25l3.58-2.37s.09,0,.1.07l-.44.38-2.73,1.8-.07,0-.46.23a.14.14,0,0,1,0-.07S29.69,43.26,29.72,43.25Z"/><path class="cls-10" d="M13.05,95.73c-1,0-1.44-.9-1.43-1.89,0-1.54,1.44-3.86,2.78-5.11a5.74,5.74,0,0,1,2.44-1.54H16.4a3.4,3.4,0,0,0-2.58,1.32l0,0-3.21,4S8.82,95,9,96.59a1.36,1.36,0,0,0,.36.71c.13.11.29.15.37,0l.33-.68a.91.91,0,0,1,.81-.51H147.14a.11.11,0,0,0,.12-.11l0-.27Z"/><path class="cls-11" d="M155.29,4.8h0s-1.12-1.89-5.45-2c-4.55-.14-6-.84-6.43-1.25a3.37,3.37,0,0,0-1.87-.66,1.66,1.66,0,0,0-.84.2,0,0,0,0,0,0,0l1.91.87a17.17,17.17,0,0,0,4.29,1.48,4.34,4.34,0,0,0,.72,0,15.2,15.2,0,0,1,5.06.61,3.85,3.85,0,0,0,.89.38h0l-.37.19c-1.85,1.11-3.62,2.22-5.33,3.3C134.52,16.42,123,23.71,79.24,24.09h-2C33.48,23.71,21.92,16.42,8.56,8,6.85,6.91,5.08,5.8,3.23,4.69a4.11,4.11,0,0,0-.42-.21h0c.31,0,.71-.37,1-.49a15.46,15.46,0,0,1,5.06-.61,4.34,4.34,0,0,0,.72,0,16.75,16.75,0,0,0,4.29-1.48L15.8,1a0,0,0,0,0,0-.06A1.77,1.77,0,0,0,15,.75a3.37,3.37,0,0,0-1.87.66c-.45.41-1.88,1.12-6.43,1.25-4.33.13-5.49,2.09-5.49,2.1h0A1.17,1.17,0,0,0,1,5.44a1.21,1.21,0,0,0,.41.95A28.52,28.52,0,0,1,11.71,10.6c5.67,3.59,20.44,14.23,65,14h3c44.59.28,59.36-10.36,65-13.95a28.45,28.45,0,0,1,10.35-4.21,1.28,1.28,0,0,0,.41-.95A1.19,1.19,0,0,0,155.29,4.8Z"/><path class="cls-1" d="M16.42,109.5l-.24,0,.06,1.43-4.36.19.42,27.3-1.75.1-.18-1.73-.06,2.54-2,0v-1.72H7.16l.42-26.25-4.23.2-.12-1.34-.25,0v-.58l1.4,0L3,109.31l-.06-1.2,1.4,0-.06-.58,12.1-.09Z"/><path class="cls-1" d="M32.4,127.93l.36,11-1.82.1-.18-1.68v2.49H28.71v-1.72H27.56V119H22.9l-.25,11.45.43,6.36-.79.05v2.49H21v-.67l-.61,0v.24l-2.48-.09.61-30.94,1.21-.09.18,1.14h.61l.06-1.19v-.29l1.21,0v.34l1.27,0L23,115.58l2.78-.1h2.48l3.81,0,.06,2.34v1.92l.13,2.73Zm-9.2-10.87h-.3v.1Z"/><path class="cls-1" d="M49,109.83h.85L49.22,116l-.06,2.73-.06.72v.91L49,122.62l-3.72.19-2.31.1-.06.48-3.23,0,.25,12h4.29l.24-8.81,1.21-.19.12,2h.67l.06-2.06v-.52l1.21,0v.57l1.27.05-.3,12.69H35.48l-.42-22.27-.24-3.3-.06-.86v-.39l-.06-.81-.12-3.21,5.08,0,2.66-.09.06.62,5.51,0v1h.79v1.1Zm-3.93,2.35H39.48l.18,9.19h.12l-.12-.81,1,0v-.43l3.31-.24.79,0h.25v0h.06Z"/><path class="cls-1" d="M72.4,124.87l3,.1v2.52l-.06,1.25v.81l-.06,2.53V135l-.06.57v3.63l-4.42-.1-1,0-.61-.05H68L66.89,139l-.6,0h-.85l-4.36-.14.19-4.07.06-2.25.18-4.46h-.06l-.06-15.71h.3v-.91h-.24v-2.08h.48v-1.46l5.39,0,2.66,0h5.08v4l.06.72.07,2.78.06,5.55h-1.7l-.06.38h-.73V119l-.36,2.06H70.89L71,119h-.73l.06-4.7v-2.77a.14.14,0,0,0,.06-.1h-.54l-2.78,0h-1.4l-.12,1.68h.91l-.18,12-.06,1.06.3,0,.24-1.51,3.09.09h.36l.73,0Zm-9.32-12.64v-.87h-.36v.87Zm7.08,16.52-.06.05H66.23l-.06,2.25-.06,3V135h1l1.15.05,1.15,0h.78v-.43l-.06-2.59V129Zm.43-.86-4.36-.1V128h2l1.33,0h1Z"/><path class="cls-1" d="M92,133.59h-.73l.24,3.78-1.08,0v-.19h-.13v.33l1.28.05v1l-.55,0-.06.81-4.78-.14-2.36-.1-4.3-.09v-.1l-.42.34-.49-28h-.42v-.81h2.54l.06-.24h-3v-.82h1.63l-.06-.43-2.06-.09.06-.82H91.59Zm-11.68-21,.24-1.34h-.24ZM88,132.68l-.54-.05.3-5.51h-.12l-.06-8.67-.06-4.36v-2.82H82.69l-.12,4.12.6,0L83.36,132v3.88h.24v0h4.54Zm2.34,3.44-.06-.91H90l.12.91Z"/><path class="cls-1" d="M105.26,135.12l-3.75.14v.05h3.63V137h-.54l-.12,1.53-3.82-.1H97.94l-3.63,0,.06-3.73.06-.48v-.72l.06-1,.18-3.83.3-7.76h-.06l-.3-10.73h.3v-1l1,0,.06,1h.37v-1h.54v-.28L99,109l-.18,1.67h1l-.13,12.84L99.57,130v4.31l.06,0h1.88v.24l3.69-.15Z"/><path class="cls-1" d="M120.7,120.42h-.49l.61,19.58-1.94.05v.48l-2.6-.05v-1l-2.91.09h-1.09l-.6,0h-.36l-.49.05-4,.14.06-2.39v-1.63l.06-.29.12-2.63.12-7.85.06-4,.06-2,.06-3.12,2.36,0h2l.18-.48,3.21.1.12-8,2.6.1-.06,1.91h.48l.07-2.54,2.6,0Zm-5.81,15.32.18-16.76h-3.94l.06,17h.49l1-.1Z"/><path class="cls-1" d="M137.16,109.83H138l-.66,6.18-.06,2.73-.06.72v.91l-.06,2.25-3.72.19-2.31.1-.06.48-3.23,0,.24,12h4.3l.24-8.81,1.21-.19.12,2h.67l.06-2.06v-.52l1.21,0v.57l1.27.05-.31,12.69H123.6l-.42-22.27-.25-3.3-.06-.86v-.39l-.06-.81-.12-3.21,5.09,0,2.66-.09.06.62,5.51,0v1h.78v1.1Zm-3.94,2.35h-5.63l.19,9.19h.12l-.12-.81,1,0v-.43l3.3-.24.8,0h.24v0h.06Z"/><path class="cls-1" d="M154.16,135.88l-.72.05.3,3.93-1,0-.19-2.3h-.18l.24,2.63-1,.15-.18-1.58-.84,0-.26-3.88h-.59l.19-5.79h-.12l-.19-9.53-.12-4.74-.06-2.35v-.91h-.78L146,111.6h-.36l-.42,19.16.42,5.84h-.85v2.3h-1.27v-.67h-.6v.19l-2.49-.09.67-26.73h-.36v-.81h.36l.06-.24h-.79v-.81h1.71l-.06-.43-2.19-.1.12-.81H153.5Zm-11.68-25.09h.67l.06-.24h-.79Z"/><path class="cls-1" d="M54.85,159v16.19l-13.07.33L41.23,162l1.21-.14.24,1.19.61-.05-.06-1.24h.06l-.06-.34,1.27,0v.38l1.27,0,.43,10.11,4-.1v-4l-.54-6.61.78,0v-.19l-2.6-1.15L46.2,159l-.85-.38-.18-.1-.12-.05-.07,0-.06-.05-.78-.34-.31.29-1.75-.72.24-3.54.18-2.4.18-2.34.31-4.07,11.56,0v7.57H52.79v-1.63l-.6,2.3-1.15,0,.12-1-.85-.05.24-3.45L50,149H50v0h-.37l-.9-.05H47.22V149l-.06.58L47,151.89l-.24,2.4-.06,1.1-.06.14.12.05.06,0h.06l.18.1,1.64.67,3.26,1.29-.12.24,1.4.53-.31.52Z"/><path class="cls-1" d="M70.46,147.3l.25,0v.58H69.25l1.46.29v1.19l-1.46-.09v.57l-3.39-.09-.6,25.52-1.21.1-.18-1h-.61l-.06,1.06v.28H62l-.06-.28-1.21-.05.42-19.78-.48-5.51.85-.05v-.33l-4.84-.1v-2.06H57v-1.43L70.46,146Z"/><path class="cls-1" d="M86.62,170.76H85.9l.24,3.79-1.09,0v-.19h-.12v.34l1.27,0v1l-.54,0-.07.81-4.78-.14-2.36-.1-4.29-.1v-.09l-.43.33-.48-28h-.43v-.82h2.55l.06-.24h-3v-.81H74.1L74,146.1l-2-.1.06-.81H86.26Zm-11.68-21,.24-1.34h-.24Zm7.69,20.06-.55,0,.31-5.51h-.12l-.06-8.67-.07-4.36v-2.82H77.36l-.12,4.11.61.05L78,169.13V173h.24v.05h4.54ZM85,173.3l-.06-.91h-.25l.12.91Z"/><path class="cls-1" d="M103.08,170.76h-.72l.24,3.79-1.09,0v-.19h-.12v.34l1.27,0v1l-.54,0-.06.81-4.79-.14-2.36-.1-4.29-.1v-.09l-.43.33-.48-28h-.42v-.82h2.54l.06-.24h-3v-.81h1.64l-.06-.43-2.06-.1.06-.81h14.22Zm-11.68-21,.25-1.34H91.4Zm7.69,20.06-.54,0,.3-5.51h-.12l-.06-8.67-.06-4.36v-2.82H93.82l-.12,4.11.61.05.18,16.52V173h.24v.05h4.54Zm2.34,3.45-.06-.91h-.25l.13.91Z"/><path class="cls-1" d="M116.4,172.3l-3.75.14v.05h3.63v1.67h-.55l-.12,1.54-3.81-.1h-2.72l-3.64,0,.06-3.73.07-.48v-.72l.06-1,.18-3.83.3-7.76h-.06l-.3-10.72h.3v-1l1,0,.06,1h.36v-1h.55V146l2,.2-.18,1.67h1l-.12,12.84-.06,6.41v4.31l.06,0h1.88v.23l3.69-.14Z"/><path class="cls-3" d="M92.83,59.43C92.74,73.33,80.34,72.8,80.34,72.8H35.62A1.23,1.23,0,0,0,34.38,74V93.88a1.06,1.06,0,0,0,1.06,1.06H78.3V93.22H53.07a.63.63,0,0,1-.62-.63v-9a1.59,1.59,0,0,1,1.6-1.6H89.82s18.33-1.63,18.33-24c0-1.11-.06-2.16-.15-3.16H92A12.07,12.07,0,0,1,92.83,59.43Z"/><path class="cls-12" d="M89.82,82H91.6a19.25,19.25,0,0,0,13.33-9.2h-.57A20.86,20.86,0,0,1,89.82,82Z"/><path class="cls-12" d="M106.22,47.62l-.33-.72H80.75s-.47,0-1.24.11a22.5,22.5,0,0,1,3.14.61Z"/><path class="cls-5" d="M107.2,58.32a23.39,23.39,0,0,0-.1-3.94,18.83,18.83,0,0,0-.7-3.4c-.6-1.95-1.37-3.1-1.61-3s.06,1.39.37,3.3c.16.95.31,2.06.44,3.26s.21,2.48.26,3.77a34.17,34.17,0,0,1-.23,6.34,22.33,22.33,0,0,1-.58,2.86,21.46,21.46,0,0,1-1.23,3.41,26.52,26.52,0,0,0,1.49-3.33c.37-1,.64-1.91.88-2.82A32.27,32.27,0,0,0,107.2,58.32Z"/><path class="cls-2" d="M3.58,182.07H6.24a1.84,1.84,0,0,0-.39,1.15v2.7l2.29-2.65a2.11,2.11,0,0,0,.45-1v-.21h3l-.34.18a4.21,4.21,0,0,0-.84.73l-2.68,3,2.66,3.58a3.5,3.5,0,0,0,.68.73,2.48,2.48,0,0,0,.74.39H8.54a1.12,1.12,0,0,0,0-.72,2,2,0,0,0-.24-.4l-2.43-3.28v3.18a2,2,0,0,0,.36,1.22H3.59a1.77,1.77,0,0,0,.27-.53,2.42,2.42,0,0,0,.08-.69v-6.27A1.9,1.9,0,0,0,3.58,182.07Z"/><path class="cls-2" d="M16.67,182.07h2.71l-.13.2a2,2,0,0,0-.27,1v6.25a2,2,0,0,0,.39,1.21h-2.7a1.9,1.9,0,0,0,.4-1.21v-6.27A1.74,1.74,0,0,0,16.67,182.07Z"/><path class="cls-2" d="M24.49,183.77l.55-1.7h6.64l-.47,1.5a4.52,4.52,0,0,0-.76-.25,6.51,6.51,0,0,0-.79-.16l-.61,0v6.36a1.89,1.89,0,0,0,.37,1.22H26.75l.14-.19a1.5,1.5,0,0,0,.16-.36,2,2,0,0,0,.08-.66v-6.34a5.27,5.27,0,0,0-1.73.23A8.16,8.16,0,0,0,24.49,183.77Z"/><path class="cls-2" d="M44.12,182.39l.05,1.76a5.7,5.7,0,0,0-.84-.78,2.61,2.61,0,0,0-1.66-.5,2.71,2.71,0,0,0-1.51.46,2.82,2.82,0,0,0-1,1.31,4.36,4.36,0,0,0-.37,1.77,4.75,4.75,0,0,0,.06.78,4.34,4.34,0,0,0,.33,1,2.44,2.44,0,0,0,1,1.1,2.91,2.91,0,0,0,1.63.48,2.64,2.64,0,0,0,1.62-.45,4.89,4.89,0,0,0,.88-.78l-.26,1.7-.27.12a7,7,0,0,1-1.27.35,7.47,7.47,0,0,1-1.13.09,4.8,4.8,0,0,1-3-.91,3.42,3.42,0,0,1-1.44-2,8.38,8.38,0,0,1-.23-1.53,4,4,0,0,1,1.44-3.15,5.24,5.24,0,0,1,3.6-1.27,6.85,6.85,0,0,1,1,.08,5.26,5.26,0,0,1,.9.19Z"/><path class="cls-2" d="M49.84,190.71l.14-.19a1.77,1.77,0,0,0,.18-.45,2,2,0,0,0,.07-.57v-6.27a1.8,1.8,0,0,0-.38-1.16h2.68a1.84,1.84,0,0,0-.22.41,1.46,1.46,0,0,0-.12.39,1.76,1.76,0,0,0,0,.38v2.47h3.26v-2.47a2.05,2.05,0,0,0-.26-1l-.12-.2H57.7a1.87,1.87,0,0,0-.37,1.16v6.27a1.86,1.86,0,0,0,.38,1.21H55l.13-.22.09-.22a1.72,1.72,0,0,0,.11-.38,3.22,3.22,0,0,0,0-.39v-2.59H52.15v2.59a2.1,2.1,0,0,0,.25,1l.11.2Z"/><path class="cls-2" d="M63.55,190.71a1.93,1.93,0,0,0,.39-1.21v-6.25a2,2,0,0,0-.37-1.18h5.22l-.72,1.48A9,9,0,0,0,67,183.3a7,7,0,0,0-1.13-.09v2.51H68.4l-.87,1.4-.41-.13a8.19,8.19,0,0,0-1.27-.22v2.81a12,12,0,0,0,3.45-.5l-.83,1.63Z"/><path class="cls-2" d="M74.37,182.07H76.5l0,.21a2.39,2.39,0,0,0,.37.75l4,5.25v-5.06a2,2,0,0,0-.23-.94l-.15-.21h2.53l-.11.2a2.24,2.24,0,0,0-.22,1v6.24a3.08,3.08,0,0,0,.14,1l.08.2h-2l-4.1-5.46v4.25a2.1,2.1,0,0,0,.35,1.21H74.64a1.77,1.77,0,0,0,.27-.53,2.35,2.35,0,0,0,.08-.68v-6.39Z"/><path class="cls-2" d="M99.29,186a3.82,3.82,0,0,1-.64-.67,1.88,1.88,0,0,1-.38-1.23,2,2,0,0,1,.48-1.29,2,2,0,0,1,1.07-.71,4.25,4.25,0,0,1,1-.15l.27,0,.59.1a1.7,1.7,0,0,1,.9.56,1.56,1.56,0,0,1,.43,1.1,1.8,1.8,0,0,1-.21.84,2.07,2.07,0,0,1-.41.61,3.43,3.43,0,0,1-.33.3l-.29.21c.27.16.57.35.88.56s.61.42.88.62l.56.46a5.63,5.63,0,0,0,.69-1.82c0-.45.07-.73.07-.85s0-.28,0-.49a5.39,5.39,0,0,0-1.27.16l0-.45v-.47c.41,0,.87,0,1.38,0h1.38l.86-.06c0,.09,0,.17,0,.26s0,.15,0,.2v.47l-.59-.13-.32,0H106a7.68,7.68,0,0,1-.27,2,8.87,8.87,0,0,1-.8,1.92l.26.23.45.54.16.18a2.39,2.39,0,0,0,.61.42,1.62,1.62,0,0,0,.64.12h.18l-.23.22c-.49.41-.82.67-1,.79a.83.83,0,0,1-.49.17,1.28,1.28,0,0,1-.35,0,1.11,1.11,0,0,1-.6-.43l-.21-.21-.16-.2-.2-.25-.13-.17a4.64,4.64,0,0,1-4.07,1.21,5.91,5.91,0,0,1-1-.32,2.24,2.24,0,0,1-1-.83,2.09,2.09,0,0,1-.43-1.27,1.65,1.65,0,0,1,.32-1.08,3.27,3.27,0,0,1,.61-.62,3.9,3.9,0,0,1,.72-.44Zm1,.8-.37.21a2.58,2.58,0,0,0-.25.19l-.29.28a.87.87,0,0,0-.22.67,1.22,1.22,0,0,0,.63,1.08,2.3,2.3,0,0,0,1.29.4,2.59,2.59,0,0,0,1.6-.55l.36-.35-.63-.54A14.64,14.64,0,0,0,100.25,186.82Zm.59-1.7.12-.07.36-.27a.89.89,0,0,0,.34-.54,3.25,3.25,0,0,0,0-.41.68.68,0,0,0-.23-.55.92.92,0,0,0-.62-.2.77.77,0,0,0-.81.8,1.28,1.28,0,0,0,.13.52,1.12,1.12,0,0,0,.32.47A1.77,1.77,0,0,0,100.84,185.12Z"/><path class="cls-2" d="M121.31,190.71l.1-.18a2.62,2.62,0,0,0,.25-1v-6.25a2.32,2.32,0,0,0-.33-1.19h3.19a5.08,5.08,0,0,1,1.29.33,2,2,0,0,1,.9.72,1.77,1.77,0,0,1,.32,1,1.59,1.59,0,0,1-.4,1.17,4.28,4.28,0,0,1-.59.53l-.47.3.24.08a3.31,3.31,0,0,1,1.09.77,1.86,1.86,0,0,1,.52,1.35,2.16,2.16,0,0,1-.37,1.18,2.26,2.26,0,0,1-.87.8,4,4,0,0,1-.87.31,4.89,4.89,0,0,1-.93.07Zm2.25-4.73a1.7,1.7,0,0,0,.89-.24,1.27,1.27,0,0,0,.51-.53,3,3,0,0,0,.16-.48,1.45,1.45,0,0,0,0-.32,1.3,1.3,0,0,0-.37-.94,1.22,1.22,0,0,0-.91-.38h-.32Zm0,3.73.26,0H124a1.68,1.68,0,0,0,1.09-.45,1.4,1.4,0,0,0,.4-1,3.81,3.81,0,0,0-.23-1.07c-.16-.46-.62-.74-1.39-.83h-.29Z"/><path class="cls-2" d="M132.25,190.71a5.5,5.5,0,0,0,1.12-1.67l2.56-5.84c0-.09.07-.21.13-.36s.09-.28.13-.41l.05-.18,0-.18H138l0,.18,0,.19.23.76,2.21,5.7a6.8,6.8,0,0,0,.9,1.62l.15.19h-2.7a1.23,1.23,0,0,0,0-.2v-.17a2.3,2.3,0,0,0,0-.37,1.65,1.65,0,0,0-.12-.46l-.53-1.43h-2.57l-.53,1.26a2.56,2.56,0,0,0-.18,1l0,.41Zm3.64-3.8H138l-1-3Z"/><path class="cls-2" d="M146.51,190.71a1.68,1.68,0,0,0,.31-.53,2.29,2.29,0,0,0,.09-.68v-6.28a1.8,1.8,0,0,0-.39-1.15h2.64l.59,0a3.71,3.71,0,0,1,1.79.6,2.76,2.76,0,0,1,.84.89,2.06,2.06,0,0,1,.23.93,2,2,0,0,1-.35,1.13,2.58,2.58,0,0,1-1,.87l-.38.17a18.66,18.66,0,0,0,3,4h-1.79a14.16,14.16,0,0,1-3.27-3.92v2.71a2.27,2.27,0,0,0,.23,1l.13.2Zm2.27-4.36.24,0c.75-.1,1.2-.36,1.35-.76a3.05,3.05,0,0,0,.23-.93,1.59,1.59,0,0,0-1.22-1.51,4.25,4.25,0,0,0-.6-.06Z"/></g></g></svg>